<svg width="1600" height="380" viewBox="0 0 1600 380" fill="none" xmlns="http://www.w3.org/2000/svg">
<g clip-path="url(#clip0_1_2)">
<g clip-path="url(#clip1_1_2)">
<path d="M566.535 105.785H434.382V133.337H485.662V272.634H515.256V133.337H566.535V105.785Z" fill="#001D38"/>
<mask id="mask0_1_2" style="mask-type:luminance" maskUnits="userSpaceOnUse" x="-260" y="-870" width="2121" height="2120">
<path d="M-259 -870H1861V1250H-259V-870Z" fill="white"/>
</mask>
<g mask="url(#mask0_1_2)">
<path d="M566.535 198.903V272.634H594.088V198.903C594.088 177.219 605.058 168.799 621.386 168.799V143.287C588.731 143.287 566.535 161.401 566.535 198.903Z" fill="#001D38"/>
<path d="M640.577 272.634H668.128V146.605H640.577V272.634Z" fill="#001D38"/>
<path d="M654.608 90.9877C643.893 90.9877 635.985 99.1518 635.985 109.867C635.985 120.582 643.893 128.746 654.608 128.746C665.323 128.746 673.233 120.582 673.233 109.867C673.233 99.1518 665.323 90.9877 654.608 90.9877Z" fill="#0099DD"/>
<path d="M754.672 250.439C730.945 250.439 714.873 233.345 714.873 209.619C714.873 185.893 730.945 168.799 754.672 168.799C778.653 168.799 794.725 185.893 794.725 209.619C794.725 233.345 778.653 250.439 754.672 250.439ZM754.417 143.287C715.128 143.287 687.32 169.82 687.32 210.64V326.464H714.873V252.479C723.803 267.531 740.13 275.951 759.264 275.951C790.899 275.951 822.533 253.244 822.533 210.64C822.533 170.841 794.471 143.287 754.417 143.287Z" fill="#001D38"/>
<path d="M903.709 250.438C879.728 250.438 863.654 233.345 863.654 209.619C863.654 185.893 879.728 168.799 903.709 168.799C927.69 168.799 943.507 185.893 943.507 209.619C943.507 233.345 927.69 250.438 903.709 250.438ZM903.709 143.287C863.91 143.287 835.847 171.351 835.847 209.619C835.847 247.887 863.91 275.951 903.709 275.951C943.507 275.951 971.571 247.887 971.571 209.619C971.571 171.351 943.507 143.287 903.709 143.287Z" fill="#001D38"/>
<path d="M1125.2 143.288C1105.81 143.288 1090.25 151.452 1081.32 167.014C1072.39 151.452 1056.57 143.288 1037.44 143.288C1007.59 143.288 984.884 161.146 984.884 200.179V272.633H1012.44V200.179C1012.44 178.238 1023.92 168.8 1039.99 168.8C1055.81 168.8 1067.8 178.749 1067.8 200.179V272.633H1095.35V200.179C1095.35 178.749 1106.83 168.8 1122.65 168.8C1138.72 168.8 1150.2 178.238 1150.2 200.179V272.633H1177.75V200.179C1177.75 161.146 1155.05 143.288 1125.2 143.288Z" fill="#001D38"/>
<path d="M1258.93 250.438C1234.95 250.438 1218.88 233.345 1218.88 209.619C1218.88 185.893 1234.95 168.799 1258.93 168.799C1282.91 168.799 1298.73 185.893 1298.73 209.619C1298.73 233.345 1282.91 250.438 1258.93 250.438ZM1259.19 143.287C1219.13 143.287 1191.07 170.841 1191.07 210.894C1191.07 253.244 1222.7 275.951 1254.34 275.951C1275.26 275.951 1293.12 266 1301.03 246.612V272.634H1326.28V210.64C1326.28 170.075 1298.73 143.287 1259.19 143.287Z" fill="#001D38"/>
<path d="M1373.03 105.785H1345.47V224.415C1345.47 259.112 1366.14 275.95 1396.5 275.95H1400.32V250.438H1396.5C1382.47 250.438 1373.03 242.784 1373.03 224.415V171.606H1400.32V146.605H1373.03V105.785Z" fill="#001D38"/>
<path d="M1419.51 272.634H1447.07V146.605H1419.51V272.634Z" fill="#001D38"/>
<path d="M1433.55 90.9877C1422.83 90.9877 1414.92 99.1518 1414.92 109.867C1414.92 120.582 1422.83 128.746 1433.55 128.746C1444.26 128.746 1452.17 120.582 1452.17 109.867C1452.17 99.1518 1444.26 90.9877 1433.55 90.9877Z" fill="#0099DD"/>
<path d="M1532.45 250.438C1508.46 250.438 1492.39 233.345 1492.39 209.619C1492.39 185.893 1508.46 168.799 1532.45 168.799C1550.56 168.799 1564.08 178.494 1569.95 193.035H1597.76C1591.38 163.698 1566.38 143.287 1532.45 143.287C1492.65 143.287 1464.59 171.351 1464.59 209.619C1464.59 247.887 1492.65 275.951 1532.45 275.951C1566.38 275.951 1591.38 255.54 1597.76 226.202H1569.95C1564.08 240.743 1550.56 250.438 1532.45 250.438Z" fill="#001D38"/>
<path d="M330.653 67.8616H282.525C290.836 76.0639 296.327 87.937 296.327 103.336C296.327 119.239 288.899 130.265 282.914 136.576L300.587 154.248C302.247 155.908 303.179 158.16 303.179 160.508V237.586C303.179 240.03 301.197 242.011 298.753 242.011H257.844H216.935C214.49 242.011 212.509 240.03 212.509 237.586V160.508C212.509 158.16 213.442 155.908 215.102 154.248L238.616 130.734C241.353 134.635 243.474 138.937 244.561 144.209C242.82 146.774 241.801 149.871 241.801 153.205C241.801 162.066 248.984 169.247 257.844 169.247C266.704 169.247 273.886 162.066 273.886 153.205C273.886 148.945 272.215 145.084 269.505 142.211C267.407 139.987 264.685 138.369 261.614 137.628C262.801 142.087 263.51 147.028 263.51 152.598C263.51 155.727 260.973 158.265 257.843 158.265C254.713 158.265 252.176 155.727 252.176 152.598C252.176 147.485 251.451 143.047 250.234 139.081C248.676 134.002 246.295 129.71 243.479 125.87C240.353 121.606 236.713 117.877 233.114 114.203C225.313 106.235 217.246 97.9963 216.93 85.5435C216.742 78.1362 218.931 72.356 222.311 67.8616H146.95V47.8435C146.95 41.5948 152.034 36.51 158.284 36.51H221.946C228.196 36.51 233.28 41.5948 233.28 47.8435V72.5669C230.285 75.4523 228.113 79.5184 228.26 85.2551C228.463 93.2518 234.089 98.998 241.213 106.272C244.579 109.709 248.217 113.448 251.566 117.784L254.714 114.635C255.316 114.033 256.052 113.655 256.823 113.471C258.268 113.13 259.848 113.509 260.973 114.635L274.904 128.566C279.461 123.691 284.994 115.306 284.994 103.336C284.994 85.6124 276.171 74.5428 265.015 69.3106V47.8435C265.015 24.0963 245.694 4.77574 221.946 4.77574H158.284C134.535 4.77574 115.215 24.0963 115.215 47.8435V67.8616H49.5754C24.5371 67.8616 4.24023 88.1585 4.24023 113.197V287.489C4.24023 312.527 24.5371 332.824 49.5754 332.824H330.653C355.692 332.824 375.989 312.527 375.989 287.489V113.197C375.989 88.1585 355.692 67.8616 330.653 67.8616Z" fill="#0099DD"/>
</g>
</g>
</g>
<defs>
<clipPath id="clip0_1_2">
<rect width="1600" height="380" fill="white"/>
</clipPath>
<clipPath id="clip1_1_2">
<rect width="2120" height="2120" fill="white" transform="translate(-260 -870)"/>
</clipPath>
</defs>
</svg>
